<svg aria-label="Threads" viewBox="0 0 192 192" xmlns="http://www.w3.org/2000/svg"><path class="x19hqcy" fill="#9ba2a6" d="M132.745 90.33a53.91 53.91 0 0 0-2.036-.925c-1.198-22.081-13.264-34.723-33.524-34.852h-.275c-12.118 0-22.197 5.172-28.4 14.584l11.143 7.644c4.633-7.031 11.906-8.53 17.263-8.53h.185c6.67.043 11.704 1.983 14.962 5.765 2.371 2.753 3.957 6.559 4.742 11.362-5.914-1.006-12.31-1.315-19.149-.922-19.262 1.108-31.645 12.343-30.813 27.953.422 7.918 4.367 14.73 11.107 19.18 5.698 3.762 13.038 5.602 20.666 5.186 10.075-.553 17.977-4.396 23.49-11.424 4.188-5.337 6.836-12.254 8.006-20.969 4.8 2.898 8.359 6.71 10.324 11.294 3.341 7.791 3.536 20.595-6.911 31.033-9.153 9.144-20.156 13.1-36.784 13.222-18.444-.137-32.394-6.052-41.463-17.582C46.785 131.553 42.396 115.96 42.232 96c.164-19.96 4.552-35.553 13.046-46.35 9.07-11.53 23.019-17.444 41.463-17.582 18.579.138 32.771 6.081 42.188 17.667 4.618 5.681 8.099 12.825 10.394 21.156l13.057-3.484c-2.782-10.254-7.159-19.09-13.115-26.417-12.073-14.852-29.729-22.463-52.478-22.62h-.091c-22.703.156-40.162 7.797-51.89 22.706-10.437 13.266-15.821 31.728-16.001 54.869l-.001.055v.054c.181 23.141 5.565 41.603 16.001 54.87 11.73 14.91 29.188 22.55 51.89 22.706h.092c20.184-.14 34.412-5.424 46.132-17.134 15.335-15.32 14.873-34.523 9.819-46.311-3.626-8.454-10.54-15.32-19.993-19.855zm-34.85 32.765c-8.442.476-17.213-3.313-17.645-11.43-.32-6.018 4.283-12.733 18.163-13.533 1.59-.092 3.15-.136 4.682-.136 5.042 0 9.76.49 14.048 1.427-1.6 19.975-10.982 23.219-19.248 23.672z" style="stroke-width:.808651"/></svg>